<?xml version="1.0" encoding="UTF-8" standalone="no"?>
<!DOCTYPE svg PUBLIC "-//W3C//DTD SVG 1.1//EN" "http://www.w3.org/Graphics/SVG/1.1/DTD/svg11.dtd">
<svg width="100%" height="100%" viewBox="0 0 250 250" version="1.1" xmlns="http://www.w3.org/2000/svg" xmlns:xlink="http://www.w3.org/1999/xlink" xml:space="preserve" xmlns:serif="http://www.serif.com/" style="fill-rule:evenodd;clip-rule:evenodd;stroke-linejoin:round;stroke-miterlimit:1.41421;">
    <g transform="matrix(1.07861,0,0,1.07861,-290.351,-278.745)">
        <circle cx="385.08" cy="374.32" r="115.89" style="fill:rgb(72,52,212);fill-opacity:0.5;"/>
    </g>
    <g transform="matrix(1.07861,0,0,1.07861,-290.351,-278.745)">
        <circle cx="385.3" cy="373.58" r="113.44" style="fill:rgb(245,245,245);"/>
    </g>
    <g transform="matrix(1.07861,0,0,1.07861,-516.082,-356.167)">
        <path d="M594.68,559.25C616.832,559.279 638.509,552.788 657,540.59C652.82,517.75 636.91,516.44 636.91,516.44L549.23,516.44C549.23,516.44 534.23,517.67 529.53,538.69C548.6,552.104 571.365,559.288 594.68,559.25Z" style="fill:rgb(108,99,255);fill-rule:nonzero;"/>
    </g>
    <g transform="matrix(1.07861,0,0,1.07861,-290.351,-278.745)">
        <circle cx="384.2" cy="371.19" r="54.76" style="fill:rgb(245,95,68);"/>
    </g>
    <g transform="matrix(1.07861,0,0,1.07861,-290.351,-278.745)">
        <path d="M366.53,416.8L401.62,416.8L401.62,444.87C401.62,454.492 393.702,462.41 384.08,462.41C374.458,462.41 366.54,454.492 366.54,444.87L366.54,416.8L366.53,416.8Z" style="fill-opacity:0.1;fill-rule:nonzero;"/>
    </g>
    <g transform="matrix(1.07861,0,0,1.07861,-290.351,-278.745)">
        <path d="M369.88,415.5L398.27,415.5C400.108,415.5 401.62,417.012 401.62,418.85L401.62,443.57C401.62,453.192 393.702,461.11 384.08,461.11C374.458,461.11 366.54,453.192 366.54,443.57L366.54,418.85C366.54,417.012 368.052,415.5 369.89,415.5L369.88,415.5Z" style="fill:rgb(253,165,125);fill-rule:nonzero;"/>
    </g>
    <g transform="matrix(1.07861,0,0,1.07861,-516.082,-356.167)">
        <path d="M575.88,501.83C587.186,506.056 599.64,506.091 610.97,501.93L610.97,497.62L575.88,497.62L575.88,501.83Z" style="fill-opacity:0.1;fill-rule:nonzero;"/>
    </g>
    <g transform="matrix(1.07861,0,0,1.07861,-290.351,-278.745)">
        <circle cx="384.2" cy="382.11" r="50.29" style="fill:rgb(253,165,125);"/>
    </g>
    <g transform="matrix(1.07861,0,0,1.07861,-290.351,-278.745)">
        <circle cx="384.13" cy="315.49" r="20.24" style="fill:rgb(245,95,68);"/>
    </g>
    <g transform="matrix(1.07861,0,0,1.07861,-290.351,-278.745)">
        <circle cx="384.13" cy="295.56" r="13.29" style="fill:rgb(245,95,68);"/>
    </g>
    <g transform="matrix(1.07861,0,0,1.07861,-516.082,-356.167)">
        <path d="M584.63,398.37C574.824,393.971 570.144,382.49 574.08,372.49C573.94,372.77 573.8,373.06 573.67,373.35C572.501,375.956 571.897,378.779 571.897,381.635C571.897,392.74 581.035,401.878 592.14,401.878C600.1,401.878 607.352,397.183 610.61,389.92C610.74,389.63 610.86,389.34 610.98,389.04C606.128,398.633 594.437,402.772 584.63,398.37Z" style="fill:rgb(245,95,68);fill-rule:nonzero;"/>
    </g>
    <g transform="matrix(1.07861,0,0,1.07861,-516.082,-356.167)">
        <path d="M557.67,408.15C557.67,408.15 578.86,451.15 638.67,426.15L624.75,404.32L600.08,395.46L557.67,408.15Z" style="fill-opacity:0.1;fill-rule:nonzero;"/>
    </g>
    <g transform="matrix(1.07861,0,0,1.07861,-516.082,-356.167)">
        <path d="M557.67,407.51C557.67,407.51 578.86,450.51 638.67,425.51L624.75,403.68L600.08,394.82L557.67,407.51Z" style="fill:rgb(245,95,68);fill-rule:nonzero;"/>
    </g>
    <g transform="matrix(1.07861,0,0,1.07861,-516.082,-356.167)">
        <path d="M574,391.85C587.04,390.824 600.14,390.824 613.18,391.85C626.22,392.876 584.24,394.54 574,391.85Z" style="fill:rgb(51,51,51);fill-rule:nonzero;"/>
    </g>
    <g transform="matrix(1.07861,0,0,1.07861,-516.082,-356.167)">
        <path d="M596.45,353.24C595.445,353.203 594.438,353.28 593.45,353.47L594.22,353.47C601.341,353.698 607.075,359.618 607.075,366.743C607.075,373.117 602.487,378.636 596.22,379.8C596.26,379.8 596.3,379.801 596.34,379.801C603.625,379.801 609.621,373.805 609.621,366.52C609.621,359.28 603.7,353.305 596.46,353.24L596.45,353.24Z" style="fill:rgb(245,95,68);fill-rule:nonzero;"/>
    </g>
    <g transform="matrix(1.07861,0,0,1.07861,-290.351,-278.745)">
        <ellipse cx="333.9" cy="382.06" rx="4.68" ry="8.77" style="fill:rgb(253,165,125);"/>
    </g>
    <g transform="matrix(1.07861,0,0,1.07861,-290.351,-278.745)">
        <ellipse cx="434.49" cy="382.06" rx="4.68" ry="8.77" style="fill:rgb(253,165,125);"/>
    </g>
    <g transform="matrix(1.07861,0,0,1.07861,-290.351,-278.745)">
        <path d="M345.22,337L355.03,331.94L357.24,340.05L351.23,344.14L345.22,337Z" style="fill:rgb(245,95,68);fill-rule:nonzero;"/>
    </g>
    <g transform="matrix(1.07861,0,0,1.07861,-0.657952,-6.68738)">
        <circle cx="116.72" cy="122.09" r="115.89" style="fill:url(#_Linear1);"/>
    </g>
    <g transform="matrix(1.07861,0,0,1.07861,-0.657952,-6.34206)">
        <circle cx="116.72" cy="121.46" r="113.44" style="fill:rgb(245,245,245);"/>
    </g>
    <g transform="matrix(1.07861,0,0,1.07861,-226.389,-84.1099)">
        <path d="M326.32,307C348.485,307.036 370.178,300.545 388.68,288.34C384.5,265.5 368.59,264.19 368.59,264.19L280.88,264.19C280.88,264.19 265.88,265.42 261.18,286.44C280.247,299.852 303.008,307.036 326.32,307Z" style="fill:rgb(108,99,255);fill-rule:nonzero;"/>
    </g>
    <g transform="matrix(1.07861,0,0,1.07861,-0.657952,-6.68738)">
        <circle cx="115.85" cy="118.96" r="50.29" style="fill:rgb(51,51,51);"/>
    </g>
    <g transform="matrix(1.07861,0,0,1.07861,-0.657952,-6.68738)">
        <path d="M98.18,164.57L133.27,164.57L133.27,192.64C133.27,202.262 125.352,210.18 115.73,210.18C106.108,210.18 98.19,202.262 98.19,192.64L98.19,164.57L98.18,164.57Z" style="fill-opacity:0.1;fill-rule:nonzero;"/>
    </g>
    <g transform="matrix(1.07861,0,0,1.07861,-0.657952,-6.68738)">
        <path d="M101.53,163.27L129.92,163.27C131.758,163.27 133.27,164.782 133.27,166.62L133.27,191.34C133.27,200.962 125.352,208.88 115.73,208.88C106.108,208.88 98.19,200.962 98.19,191.34L98.19,166.62C98.19,164.786 99.696,163.275 101.53,163.27Z" style="fill:rgb(190,124,94);fill-rule:nonzero;"/>
    </g>
    <g transform="matrix(1.07861,0,0,1.07861,-226.389,-84.1099)">
        <path d="M307.53,249.6C318.836,253.826 331.29,253.861 342.62,249.7L342.62,245.39L307.53,245.39L307.53,249.6Z" style="fill-opacity:0.1;fill-rule:nonzero;"/>
    </g>
    <g transform="matrix(1.07861,0,0,1.07861,-0.657952,-6.68738)">
        <circle cx="115.85" cy="129.88" r="50.29" style="fill:rgb(190,124,94);"/>
    </g>
    <g transform="matrix(1.07861,0,0,1.07861,-226.389,-84.1099)">
        <path d="M294.66,180.92C295.25,178.75 295.99,176.36 297.94,175.23C299.48,174.33 301.39,174.47 303.17,174.56C317.07,175.32 330.85,172.15 344.37,168.84C352.1,166.95 360.37,164.65 365.37,158.42C370.37,152.19 363.85,132.61 356.24,130.3C351.24,128.77 345.44,131.62 340.7,129.38C338.59,128.38 337.04,126.51 335.22,125.05C331.49,122.05 326.7,120.84 322.06,119.7C316.64,118.36 310.78,117.05 305.63,119.2C301.63,120.86 298.71,124.37 294.92,126.45C287.71,130.45 278.92,128.59 270.66,128.57C267.87,128.57 264.54,129.13 263.43,131.69C262.68,133.43 263.28,135.41 263.36,137.3C263.6,143.3 258.65,147.97 254.5,152.3C250.35,156.63 246.43,162.81 249.05,168.19C250.05,170.24 251.88,171.79 252.92,173.82C254.71,177.34 253.81,181.59 254.46,185.48C255.111,188.432 256.214,191.265 257.73,193.88C260.81,199.88 276.28,232.18 283.39,223.97C286.83,219.97 287.39,208.41 288.78,203.21C290.7,195.737 292.66,188.307 294.66,180.92Z" style="fill:rgb(51,51,51);fill-rule:nonzero;"/>
    </g>
    <g transform="matrix(1.07861,0,0,1.07861,-0.657952,-6.68738)">
        <ellipse cx="80.07" cy="128.05" rx="4.68" ry="8.77" style="fill:rgb(190,124,94);"/>
    </g>
    <defs>
        <linearGradient id="_Linear1" x1="0" y1="0" x2="1" y2="0" gradientUnits="userSpaceOnUse" gradientTransform="matrix(1.41918e-14,-231.77,231.77,1.41918e-14,116.72,237.98)"><stop offset="0" style="stop-color:rgb(128,128,128);stop-opacity:0.123529"/><stop offset="0.54" style="stop-color:rgb(128,128,128);stop-opacity:0.0588235"/><stop offset="1" style="stop-color:rgb(128,128,128);stop-opacity:0.0490196"/></linearGradient>
    </defs>
</svg>
