<?xml version="1.0" encoding="UTF-8" standalone="no"?>
<!DOCTYPE svg PUBLIC "-//W3C//DTD SVG 1.1//EN" "http://www.w3.org/Graphics/SVG/1.1/DTD/svg11.dtd">
<svg width="100%" height="100%" viewBox="0 0 250 250" version="1.1" xmlns="http://www.w3.org/2000/svg" xmlns:xlink="http://www.w3.org/1999/xlink" xml:space="preserve" xmlns:serif="http://www.serif.com/" style="fill-rule:evenodd;clip-rule:evenodd;stroke-linejoin:round;stroke-miterlimit:1.41421;">
    <g transform="matrix(1.07861,0,0,1.07861,-290.351,-278.745)">
        <circle cx="385.08" cy="374.32" r="115.89" style="fill:rgb(72,52,212);fill-opacity:0.5;"/>
    </g>
    <g transform="matrix(1.07861,0,0,1.07861,-290.351,-278.745)">
        <circle cx="385.3" cy="373.58" r="113.44" style="fill:rgb(245,245,245);"/>
    </g>
    <g transform="matrix(1.07861,0,0,1.07861,-516.082,-356.167)">
        <path d="M594.68,559.25C616.832,559.279 638.509,552.788 657,540.59C652.82,517.75 636.91,516.44 636.91,516.44L549.23,516.44C549.23,516.44 534.23,517.67 529.53,538.69C548.6,552.104 571.365,559.288 594.68,559.25Z" style="fill:rgb(108,99,255);fill-rule:nonzero;"/>
    </g>
    <g transform="matrix(1.07861,0,0,1.07861,-290.351,-278.745)">
        <circle cx="384.2" cy="371.19" r="54.76" style="fill:rgb(245,95,68);"/>
    </g>
    <g transform="matrix(1.07861,0,0,1.07861,-290.351,-278.745)">
        <path d="M366.53,416.8L401.62,416.8L401.62,444.87C401.62,454.492 393.702,462.41 384.08,462.41C374.458,462.41 366.54,454.492 366.54,444.87L366.54,416.8L366.53,416.8Z" style="fill-opacity:0.1;fill-rule:nonzero;"/>
    </g>
    <g transform="matrix(1.07861,0,0,1.07861,-290.351,-278.745)">
        <path d="M369.88,415.5L398.27,415.5C400.108,415.5 401.62,417.012 401.62,418.85L401.62,443.57C401.62,453.192 393.702,461.11 384.08,461.11C374.458,461.11 366.54,453.192 366.54,443.57L366.54,418.85C366.54,417.012 368.052,415.5 369.89,415.5L369.88,415.5Z" style="fill:rgb(253,165,125);fill-rule:nonzero;"/>
    </g>
    <g transform="matrix(1.07861,0,0,1.07861,-516.082,-356.167)">
        <path d="M575.88,501.83C587.186,506.056 599.64,506.091 610.97,501.93L610.97,497.62L575.88,497.62L575.88,501.83Z" style="fill-opacity:0.1;fill-rule:nonzero;"/>
    </g>
    <g transform="matrix(1.07861,0,0,1.07861,-290.351,-278.745)">
        <circle cx="384.2" cy="382.11" r="50.29" style="fill:rgb(253,165,125);"/>
    </g>
    <g transform="matrix(1.07861,0,0,1.07861,-290.351,-278.745)">
        <circle cx="384.13" cy="315.49" r="20.24" style="fill:rgb(245,95,68);"/>
    </g>
    <g transform="matrix(1.07861,0,0,1.07861,-290.351,-278.745)">
        <circle cx="384.13" cy="295.56" r="13.29" style="fill:rgb(245,95,68);"/>
    </g>
    <g transform="matrix(1.07861,0,0,1.07861,-516.082,-356.167)">
        <path d="M584.63,398.37C574.824,393.971 570.144,382.49 574.08,372.49C573.94,372.77 573.8,373.06 573.67,373.35C572.501,375.956 571.897,378.779 571.897,381.635C571.897,392.74 581.035,401.878 592.14,401.878C600.1,401.878 607.352,397.183 610.61,389.92C610.74,389.63 610.86,389.34 610.98,389.04C606.128,398.633 594.437,402.772 584.63,398.37Z" style="fill:rgb(245,95,68);fill-rule:nonzero;"/>
    </g>
    <g transform="matrix(1.07861,0,0,1.07861,-516.082,-356.167)">
        <path d="M557.67,408.15C557.67,408.15 578.86,451.15 638.67,426.15L624.75,404.32L600.08,395.46L557.67,408.15Z" style="fill-opacity:0.1;fill-rule:nonzero;"/>
    </g>
    <g transform="matrix(1.07861,0,0,1.07861,-516.082,-356.167)">
        <path d="M557.67,407.51C557.67,407.51 578.86,450.51 638.67,425.51L624.75,403.68L600.08,394.82L557.67,407.51Z" style="fill:rgb(245,95,68);fill-rule:nonzero;"/>
    </g>
    <g transform="matrix(1.07861,0,0,1.07861,-516.082,-356.167)">
        <path d="M574,391.85C587.04,390.824 600.14,390.824 613.18,391.85C626.22,392.876 584.24,394.54 574,391.85Z" style="fill:rgb(51,51,51);fill-rule:nonzero;"/>
    </g>
    <g transform="matrix(1.07861,0,0,1.07861,-516.082,-356.167)">
        <path d="M596.45,353.24C595.445,353.203 594.438,353.28 593.45,353.47L594.22,353.47C601.341,353.698 607.075,359.618 607.075,366.743C607.075,373.117 602.487,378.636 596.22,379.8C596.26,379.8 596.3,379.801 596.34,379.801C603.625,379.801 609.621,373.805 609.621,366.52C609.621,359.28 603.7,353.305 596.46,353.24L596.45,353.24Z" style="fill:rgb(245,95,68);fill-rule:nonzero;"/>
    </g>
    <g transform="matrix(1.07861,0,0,1.07861,-290.351,-278.745)">
        <ellipse cx="333.9" cy="382.06" rx="4.68" ry="8.77" style="fill:rgb(253,165,125);"/>
    </g>
    <g transform="matrix(1.07861,0,0,1.07861,-290.351,-278.745)">
        <ellipse cx="434.49" cy="382.06" rx="4.68" ry="8.77" style="fill:rgb(253,165,125);"/>
    </g>
    <g transform="matrix(1.07861,0,0,1.07861,-290.351,-278.745)">
        <path d="M345.22,337L355.03,331.94L357.24,340.05L351.23,344.14L345.22,337Z" style="fill:rgb(245,95,68);fill-rule:nonzero;"/>
    </g>
</svg>
